<svg width="49" height="48" viewBox="0 0 49 48" fill="none" xmlns="http://www.w3.org/2000/svg">
<path d="M19.5 23H21.5V25H19.5V23ZM19.5 27H21.5V29H19.5V27ZM23.5 23H25.5V25H23.5V23ZM23.5 27H25.5V29H23.5V27ZM27.5 23H29.5V25H27.5V23ZM27.5 27H29.5V29H27.5V27Z" fill="black"/>
<path d="M17.5 34H31.5C32.603 34 33.5 33.103 33.5 32V18C33.5 16.897 32.603 16 31.5 16H29.5V14H27.5V16H21.5V14H19.5V16H17.5C16.397 16 15.5 16.897 15.5 18V32C15.5 33.103 16.397 34 17.5 34ZM31.5 20L31.501 32H17.5V20H31.5Z" fill="#FF8147"/>
</svg>
