<svg width="48" height="48" viewBox="0 0 48 48" fill="none" xmlns="http://www.w3.org/2000/svg">
<path d="M15 25H16V32C16 33.103 16.897 34 18 34H30C31.103 34 32 33.103 32 32V25H33C33.1978 25 33.3911 24.9413 33.5555 24.8314C33.7199 24.7215 33.848 24.5654 33.9237 24.3827C33.9994 24.2 34.0192 23.999 33.9806 23.805C33.942 23.611 33.8468 23.4329 33.707 23.293L24.707 14.293C24.5195 14.1056 24.2652 14.0002 24 14.0002C23.7349 14.0002 23.4806 14.1056 23.293 14.293L14.293 23.293C14.1532 23.4329 14.058 23.611 14.0194 23.805C13.9809 23.999 14.0007 24.2 14.0764 24.3827C14.152 24.5654 14.2802 24.7215 14.4446 24.8314C14.609 24.9413 14.8023 25 15 25ZM22 32V27H26V32H22ZM24 16.414L30 22.414V27L30.001 32H28V27C28 25.897 27.103 25 26 25H22C20.897 25 20 25.897 20 27V32H18V22.414L24 16.414Z" fill="black"/>
</svg>
